<mxfile host="app.diagrams.net" agent="Mozilla/5.0 (Windows NT 10.0; Win64; x64) AppleWebKit/537.36 (KHTML, like Gecko) Chrome/133.0.0.0 Safari/537.36" version="26.0.15">
  <diagram name="Page-1" id="BgII2Tf7LTrh-L7WVX-3">
    <mxGraphModel dx="1793" dy="2033" grid="1" gridSize="10" guides="1" tooltips="1" connect="1" arrows="1" fold="1" page="1" pageScale="1" pageWidth="850" pageHeight="1100" math="0" shadow="0">
      <root>
        <mxCell id="0" />
        <mxCell id="1" parent="0" />
        <mxCell id="Y0Y3w9yr43-6PgeDi4if-5" style="edgeStyle=orthogonalEdgeStyle;rounded=0;orthogonalLoop=1;jettySize=auto;html=1;exitX=0.5;exitY=1;exitDx=0;exitDy=0;entryX=0.5;entryY=0;entryDx=0;entryDy=0;" edge="1" parent="1" source="Y0Y3w9yr43-6PgeDi4if-1" target="Y0Y3w9yr43-6PgeDi4if-4">
          <mxGeometry relative="1" as="geometry" />
        </mxCell>
        <mxCell id="Y0Y3w9yr43-6PgeDi4if-1" value="&lt;font face=&quot;Comic Sans MS&quot; style=&quot;font-size: 14px;&quot;&gt;Start&lt;/font&gt;" style="ellipse;whiteSpace=wrap;html=1;fillColor=#d5e8d4;strokeColor=#82b366;" vertex="1" parent="1">
          <mxGeometry x="400" y="-730" width="80" height="50" as="geometry" />
        </mxCell>
        <mxCell id="Y0Y3w9yr43-6PgeDi4if-9" style="edgeStyle=orthogonalEdgeStyle;rounded=0;orthogonalLoop=1;jettySize=auto;html=1;exitX=0.5;exitY=1;exitDx=0;exitDy=0;entryX=0.5;entryY=0;entryDx=0;entryDy=0;" edge="1" parent="1" source="Y0Y3w9yr43-6PgeDi4if-2">
          <mxGeometry relative="1" as="geometry">
            <mxPoint x="440" y="-440" as="targetPoint" />
          </mxGeometry>
        </mxCell>
        <mxCell id="Y0Y3w9yr43-6PgeDi4if-2" value="&lt;font face=&quot;Comic Sans MS&quot;&gt;&lt;span style=&quot;font-size: 14px;&quot;&gt;AI Suggests Career Growth Plans &amp;amp; Learning Paths&lt;/span&gt;&lt;/font&gt;" style="rounded=1;whiteSpace=wrap;html=1;fillColor=#e1d5e7;strokeColor=#9673a6;" vertex="1" parent="1">
          <mxGeometry x="350" y="-540" width="180" height="60" as="geometry" />
        </mxCell>
        <mxCell id="Y0Y3w9yr43-6PgeDi4if-7" style="edgeStyle=orthogonalEdgeStyle;rounded=0;orthogonalLoop=1;jettySize=auto;html=1;exitX=0.5;exitY=1;exitDx=0;exitDy=0;entryX=0.5;entryY=0;entryDx=0;entryDy=0;" edge="1" parent="1" source="Y0Y3w9yr43-6PgeDi4if-4" target="Y0Y3w9yr43-6PgeDi4if-2">
          <mxGeometry relative="1" as="geometry" />
        </mxCell>
        <mxCell id="Y0Y3w9yr43-6PgeDi4if-4" value="&lt;font face=&quot;Comic Sans MS&quot;&gt;&lt;span style=&quot;font-size: 14px;&quot;&gt;AI Analyzes Job&lt;/span&gt;&lt;/font&gt;&lt;div&gt;&lt;font face=&quot;Comic Sans MS&quot;&gt;&lt;span style=&quot;font-size: 14px;&quot;&gt;Seeker Profiles &amp;amp;&lt;/span&gt;&lt;/font&gt;&lt;/div&gt;&lt;div&gt;&lt;font face=&quot;Comic Sans MS&quot;&gt;&lt;span style=&quot;font-size: 14px;&quot;&gt;Matches&amp;nbsp;&lt;/span&gt;&lt;/font&gt;&lt;span style=&quot;font-size: 14px; font-family: &amp;quot;Comic Sans MS&amp;quot;; background-color: transparent; color: light-dark(rgb(0, 0, 0), rgb(255, 255, 255));&quot;&gt;with Job Posts&lt;/span&gt;&lt;/div&gt;" style="shape=parallelogram;perimeter=parallelogramPerimeter;whiteSpace=wrap;html=1;fixedSize=1;fillColor=#dae8fc;strokeColor=#6c8ebf;" vertex="1" parent="1">
          <mxGeometry x="345" y="-640" width="190" height="60" as="geometry" />
        </mxCell>
        <mxCell id="Y0Y3w9yr43-6PgeDi4if-12" style="edgeStyle=orthogonalEdgeStyle;rounded=0;orthogonalLoop=1;jettySize=auto;html=1;exitX=0.5;exitY=1;exitDx=0;exitDy=0;entryX=0.5;entryY=0;entryDx=0;entryDy=0;" edge="1" parent="1" source="Y0Y3w9yr43-6PgeDi4if-10" target="Y0Y3w9yr43-6PgeDi4if-11">
          <mxGeometry relative="1" as="geometry" />
        </mxCell>
        <mxCell id="Y0Y3w9yr43-6PgeDi4if-10" value="&lt;font face=&quot;Comic Sans MS&quot;&gt;&lt;span style=&quot;font-size: 14px;&quot;&gt;AI Filters &amp;amp;&lt;/span&gt;&lt;/font&gt;&lt;div&gt;&lt;font face=&quot;Comic Sans MS&quot;&gt;&lt;span style=&quot;font-size: 14px;&quot;&gt;Prioritizes&amp;nbsp;&lt;/span&gt;&lt;/font&gt;&lt;span style=&quot;font-size: 14px; font-family: &amp;quot;Comic Sans MS&amp;quot;; background-color: transparent; color: light-dark(rgb(0, 0, 0), rgb(255, 255, 255));&quot;&gt;Job&lt;/span&gt;&lt;/div&gt;&lt;div&gt;&lt;span style=&quot;font-size: 14px; font-family: &amp;quot;Comic Sans MS&amp;quot;; background-color: transparent; color: light-dark(rgb(0, 0, 0), rgb(255, 255, 255));&quot;&gt;Listings for Companies&lt;/span&gt;&lt;/div&gt;" style="shape=parallelogram;perimeter=parallelogramPerimeter;whiteSpace=wrap;html=1;fixedSize=1;fillColor=#dae8fc;strokeColor=#6c8ebf;" vertex="1" parent="1">
          <mxGeometry x="345" y="-440" width="190" height="60" as="geometry" />
        </mxCell>
        <mxCell id="Y0Y3w9yr43-6PgeDi4if-14" style="edgeStyle=orthogonalEdgeStyle;rounded=0;orthogonalLoop=1;jettySize=auto;html=1;exitX=0.5;exitY=1;exitDx=0;exitDy=0;entryX=0.5;entryY=0;entryDx=0;entryDy=0;" edge="1" parent="1" source="Y0Y3w9yr43-6PgeDi4if-11" target="Y0Y3w9yr43-6PgeDi4if-13">
          <mxGeometry relative="1" as="geometry" />
        </mxCell>
        <mxCell id="Y0Y3w9yr43-6PgeDi4if-11" value="&lt;font face=&quot;Comic Sans MS&quot;&gt;&lt;span style=&quot;font-size: 14px;&quot;&gt;Blockchain Validates Certificates &amp;amp; MFA Protects Data&lt;/span&gt;&lt;/font&gt;" style="rounded=1;whiteSpace=wrap;html=1;fillColor=#e1d5e7;strokeColor=#9673a6;" vertex="1" parent="1">
          <mxGeometry x="350" y="-340" width="180" height="60" as="geometry" />
        </mxCell>
        <mxCell id="Y0Y3w9yr43-6PgeDi4if-17" style="edgeStyle=orthogonalEdgeStyle;rounded=0;orthogonalLoop=1;jettySize=auto;html=1;exitX=0;exitY=0.5;exitDx=0;exitDy=0;entryX=0.5;entryY=0;entryDx=0;entryDy=0;" edge="1" parent="1" source="Y0Y3w9yr43-6PgeDi4if-13" target="Y0Y3w9yr43-6PgeDi4if-15">
          <mxGeometry relative="1" as="geometry" />
        </mxCell>
        <mxCell id="Y0Y3w9yr43-6PgeDi4if-18" style="edgeStyle=orthogonalEdgeStyle;rounded=0;orthogonalLoop=1;jettySize=auto;html=1;exitX=1;exitY=0.5;exitDx=0;exitDy=0;entryX=0.5;entryY=0;entryDx=0;entryDy=0;" edge="1" parent="1" source="Y0Y3w9yr43-6PgeDi4if-13" target="Y0Y3w9yr43-6PgeDi4if-16">
          <mxGeometry relative="1" as="geometry" />
        </mxCell>
        <mxCell id="Y0Y3w9yr43-6PgeDi4if-13" value="&lt;font face=&quot;Comic Sans MS&quot;&gt;&lt;span style=&quot;font-size: 14px;&quot;&gt;Is Account&lt;/span&gt;&lt;/font&gt;&lt;div&gt;&lt;font face=&quot;Comic Sans MS&quot;&gt;&lt;span style=&quot;font-size: 14px;&quot;&gt;Suspicious?&lt;/span&gt;&lt;/font&gt;&lt;/div&gt;" style="rhombus;whiteSpace=wrap;html=1;fillColor=#fff2cc;strokeColor=#d6b656;" vertex="1" parent="1">
          <mxGeometry x="360" y="-240" width="160" height="80" as="geometry" />
        </mxCell>
        <mxCell id="Y0Y3w9yr43-6PgeDi4if-22" style="edgeStyle=orthogonalEdgeStyle;rounded=0;orthogonalLoop=1;jettySize=auto;html=1;exitX=0.5;exitY=1;exitDx=0;exitDy=0;entryX=0;entryY=0.5;entryDx=0;entryDy=0;" edge="1" parent="1" source="Y0Y3w9yr43-6PgeDi4if-15" target="Y0Y3w9yr43-6PgeDi4if-21">
          <mxGeometry relative="1" as="geometry" />
        </mxCell>
        <mxCell id="Y0Y3w9yr43-6PgeDi4if-15" value="&lt;font face=&quot;Comic Sans MS&quot;&gt;&lt;span style=&quot;font-size: 14px;&quot;&gt;Flag for Manual Review&lt;/span&gt;&lt;/font&gt;" style="rounded=1;whiteSpace=wrap;html=1;fillColor=#e1d5e7;strokeColor=#9673a6;" vertex="1" parent="1">
          <mxGeometry x="220" y="-160" width="180" height="60" as="geometry" />
        </mxCell>
        <mxCell id="Y0Y3w9yr43-6PgeDi4if-23" style="edgeStyle=orthogonalEdgeStyle;rounded=0;orthogonalLoop=1;jettySize=auto;html=1;exitX=0.5;exitY=1;exitDx=0;exitDy=0;entryX=1;entryY=0.5;entryDx=0;entryDy=0;" edge="1" parent="1" source="Y0Y3w9yr43-6PgeDi4if-16" target="Y0Y3w9yr43-6PgeDi4if-21">
          <mxGeometry relative="1" as="geometry" />
        </mxCell>
        <mxCell id="Y0Y3w9yr43-6PgeDi4if-16" value="&lt;font face=&quot;Comic Sans MS&quot;&gt;&lt;span style=&quot;font-size: 14px;&quot;&gt;Proceed Normally&lt;/span&gt;&lt;/font&gt;" style="rounded=1;whiteSpace=wrap;html=1;fillColor=#e1d5e7;strokeColor=#9673a6;" vertex="1" parent="1">
          <mxGeometry x="480" y="-160" width="180" height="60" as="geometry" />
        </mxCell>
        <mxCell id="Y0Y3w9yr43-6PgeDi4if-19" value="Yes" style="text;html=1;align=center;verticalAlign=middle;resizable=0;points=[];autosize=1;strokeColor=none;fillColor=none;fontSize=14;fontFamily=Comic Sans MS;fontColor=#000000;" vertex="1" parent="1">
          <mxGeometry x="310" y="-230" width="50" height="30" as="geometry" />
        </mxCell>
        <mxCell id="Y0Y3w9yr43-6PgeDi4if-20" value="No" style="text;html=1;align=center;verticalAlign=middle;resizable=0;points=[];autosize=1;strokeColor=none;fillColor=none;fontSize=14;fontFamily=Comic Sans MS;fontColor=#000000;" vertex="1" parent="1">
          <mxGeometry x="525" y="-230" width="40" height="30" as="geometry" />
        </mxCell>
        <mxCell id="Y0Y3w9yr43-6PgeDi4if-26" style="edgeStyle=orthogonalEdgeStyle;rounded=0;orthogonalLoop=1;jettySize=auto;html=1;exitX=0.5;exitY=1;exitDx=0;exitDy=0;entryX=0.5;entryY=0;entryDx=0;entryDy=0;" edge="1" parent="1" source="Y0Y3w9yr43-6PgeDi4if-21" target="Y0Y3w9yr43-6PgeDi4if-25">
          <mxGeometry relative="1" as="geometry" />
        </mxCell>
        <mxCell id="Y0Y3w9yr43-6PgeDi4if-21" value="" style="ellipse;whiteSpace=wrap;html=1;aspect=fixed;fillColor=#dae8fc;strokeColor=#6c8ebf;" vertex="1" parent="1">
          <mxGeometry x="420" y="-60" width="40" height="40" as="geometry" />
        </mxCell>
        <mxCell id="Y0Y3w9yr43-6PgeDi4if-25" value="&lt;font face=&quot;Comic Sans MS&quot; style=&quot;font-size: 14px;&quot;&gt;End&lt;/font&gt;" style="ellipse;whiteSpace=wrap;html=1;fillColor=#d5e8d4;strokeColor=#82b366;" vertex="1" parent="1">
          <mxGeometry x="400" y="10" width="80" height="50" as="geometry" />
        </mxCell>
      </root>
    </mxGraphModel>
  </diagram>
</mxfile>
